<svg xmlns="http://www.w3.org/2000/svg" viewBox="0 0 503.14 107.99"><defs><style>.cls-1{fill:#052b36;}</style></defs><title>logo</title><g id="Capa_2" data-name="Capa 2"><g id="Capa_3" data-name="Capa 3"><path class="cls-1" d="M415.74,0c-57.54,0-87.4,54-87.4,54s29.86,54,87.4,54,87.4-54,87.4-54S473.28,0,415.74,0Zm0,100.6A46.61,46.61,0,1,1,462.35,54,46.61,46.61,0,0,1,415.74,100.6Z"/><circle class="cls-1" cx="415.74" cy="53.99" r="27.42"/><path class="cls-1" d="M0,0H56.93A76.8,76.8,0,0,1,78.49,2.69a41.22,41.22,0,0,1,15.13,7.78,31.24,31.24,0,0,1,8.94,12.4,44,44,0,0,1,2.94,16.51,43,43,0,0,1-2.9,16A33.43,33.43,0,0,1,93.72,68a42,42,0,0,1-15.1,8.36,69.17,69.17,0,0,1-21.55,3L21.9,79.31V108H0ZM57.48,60.38A35.92,35.92,0,0,0,68.36,58.9a21.89,21.89,0,0,0,7.81-4.22,16.91,16.91,0,0,0,4.7-6.63,23.15,23.15,0,0,0,1.55-8.67q0-9.6-6.25-15T57.48,19.07H21.9V60.38Z"/><path class="cls-1" d="M172.17,31.3l10.37-12.65H117.66V0H223.3L162.85,75.93l-10.78,13.4h67.85V108H112.34Z"/><polygon class="cls-1" points="287.76 53.99 339.9 107.98 310.7 107.98 272.66 68.62 258.47 82.35 258.47 107.99 236.57 107.99 236.57 0 258.47 0 258.47 55.89 315.47 0 343.52 0 287.76 53.99"/></g></g></svg>